<mxfile>
    <diagram id="ByGPKLMy4q43G2cAR6rj" name="第 1 页">
        <mxGraphModel dx="1374" dy="1959" grid="1" gridSize="10" guides="1" tooltips="1" connect="1" arrows="1" fold="1" page="1" pageScale="1" pageWidth="827" pageHeight="1169" background="#E6E6E6" math="0" shadow="1">
            <root>
                <mxCell id="0"/>
                <mxCell id="1" parent="0"/>
                <mxCell id="2" value="采购结算流程" style="swimlane;html=1;childLayout=stackLayout;startSize=30;rounded=0;shadow=0;labelBackgroundColor=none;strokeWidth=1;fontFamily=Verdana;fontSize=8;align=center;" vertex="1" parent="1">
                    <mxGeometry x="120" y="-1160" width="1740" height="3950" as="geometry"/>
                </mxCell>
                <mxCell id="3" value="备注" style="swimlane;html=1;startSize=20;" vertex="1" parent="2">
                    <mxGeometry y="30" width="290" height="3920" as="geometry"/>
                </mxCell>
                <mxCell id="5" value="此处可以扫描货品条码、&lt;br&gt;强sn码" style="shape=document;whiteSpace=wrap;html=1;boundedLbl=1;" vertex="1" parent="3">
                    <mxGeometry x="30" y="200" width="135" height="60" as="geometry"/>
                </mxCell>
                <mxCell id="124" value="此处可以扫描物流单和出库单号" style="shape=document;whiteSpace=wrap;html=1;boundedLbl=1;rounded=0;" vertex="1" parent="3">
                    <mxGeometry x="30" y="115" width="120" height="80" as="geometry"/>
                </mxCell>
                <mxCell id="128" value="会传入多个物流单和多组验货数据，打包员，操作台等" style="shape=document;whiteSpace=wrap;html=1;boundedLbl=1;rounded=0;" vertex="1" parent="3">
                    <mxGeometry x="37.5" y="300" width="120" height="100" as="geometry"/>
                </mxCell>
                <mxCell id="148" value="&lt;ul style=&quot;box-sizing: border-box ; padding-left: 2em ; margin-top: 0px ; margin-bottom: 0px ; color: rgb(36 , 41 , 46) ; font-family: , &amp;#34;blinkmacsystemfont&amp;#34; , , &amp;#34;pingfang sc&amp;#34; , &amp;#34;helvetica&amp;#34; , &amp;#34;arial&amp;#34; , &amp;#34;hiragino sans gb&amp;#34; , &amp;#34;microsoft yahei&amp;#34; , &amp;#34;simsun&amp;#34; , , &amp;#34;heiti&amp;#34; , , sans-serif ; font-size: 14px ; text-align: left&quot;&gt;&lt;li style=&quot;box-sizing: border-box ; margin-top: 0.25em&quot;&gt;校验出库单是否冻结或者被拦截&lt;/li&gt;&lt;li style=&quot;box-sizing: border-box ; margin-top: 0.25em&quot;&gt;校验出库单状态是否已验货&lt;/li&gt;&lt;/ul&gt;" style="shape=document;whiteSpace=wrap;html=1;boundedLbl=1;rounded=0;" vertex="1" parent="3">
                    <mxGeometry x="30" y="1195" width="120" height="150" as="geometry"/>
                </mxCell>
                <mxCell id="160" value="&lt;ul style=&quot;box-sizing: border-box ; padding-left: 2em ; margin-top: 0px ; margin-bottom: 16px ; color: rgb(36 , 41 , 46) ; font-family: , &amp;#34;blinkmacsystemfont&amp;#34; , , &amp;#34;pingfang sc&amp;#34; , &amp;#34;helvetica&amp;#34; , &amp;#34;arial&amp;#34; , &amp;#34;hiragino sans gb&amp;#34; , &amp;#34;microsoft yahei&amp;#34; , &amp;#34;simsun&amp;#34; , , &amp;#34;heiti&amp;#34; , , sans-serif ; font-size: 14px&quot;&gt;&lt;li style=&quot;box-sizing: border-box&quot;&gt;弱序列号&lt;ul style=&quot;box-sizing: border-box ; padding-left: 2em ; margin-top: 0px ; margin-bottom: 0px&quot;&gt;&lt;li style=&quot;box-sizing: border-box&quot;&gt;启用序列号,必须扫序列号验货&lt;/li&gt;&lt;li style=&quot;box-sizing: border-box ; margin-top: 0.25em&quot;&gt;序列号个数与货品数量不一致&lt;/li&gt;&lt;li style=&quot;box-sizing: border-box ; margin-top: 0.25em&quot;&gt;序列号不能重复&lt;/li&gt;&lt;/ul&gt;&lt;/li&gt;&lt;li style=&quot;box-sizing: border-box ; margin-top: 0.25em&quot;&gt;强序列号 在弱序列号基础上还需校验&lt;ul style=&quot;box-sizing: border-box ; padding-left: 2em ; margin-top: 0px ; margin-bottom: 0px&quot;&gt;&lt;li style=&quot;box-sizing: border-box&quot;&gt;强序列号存在&lt;/li&gt;&lt;li style=&quot;box-sizing: border-box ; margin-top: 0.25em&quot;&gt;强序列号属于当前仓库&lt;/li&gt;&lt;li style=&quot;box-sizing: border-box ; margin-top: 0.25em&quot;&gt;强序列号是强序列号&lt;/li&gt;&lt;li style=&quot;box-sizing: border-box ; margin-top: 0.25em&quot;&gt;强序列号状态是已入库&lt;/li&gt;&lt;li style=&quot;box-sizing: border-box ; margin-top: 0.25em&quot;&gt;强序列号属于该货品&lt;/li&gt;&lt;/ul&gt;&lt;/li&gt;&lt;/ul&gt;" style="shape=document;whiteSpace=wrap;html=1;boundedLbl=1;rounded=0;" vertex="1" parent="3">
                    <mxGeometry x="20" y="1690" width="240" height="432.5" as="geometry"/>
                </mxCell>
                <mxCell id="178" value="&lt;br&gt;&lt;span style=&quot;color: rgb(36 , 41 , 46) ; font-family: , &amp;#34;blinkmacsystemfont&amp;#34; , , &amp;#34;pingfang sc&amp;#34; , &amp;#34;helvetica&amp;#34; , &amp;#34;arial&amp;#34; , &amp;#34;hiragino sans gb&amp;#34; , &amp;#34;microsoft yahei&amp;#34; , &amp;#34;simsun&amp;#34; , , &amp;#34;heiti&amp;#34; , , sans-serif ; font-size: 14px ; text-align: left&quot;&gt;&lt;/span&gt;&lt;ul style=&quot;box-sizing: border-box ; padding-left: 2em ; margin-top: 0px ; margin-bottom: 0px ; color: rgb(36 , 41 , 46) ; font-family: , &amp;#34;blinkmacsystemfont&amp;#34; , , &amp;#34;pingfang sc&amp;#34; , &amp;#34;helvetica&amp;#34; , &amp;#34;arial&amp;#34; , &amp;#34;hiragino sans gb&amp;#34; , &amp;#34;microsoft yahei&amp;#34; , &amp;#34;simsun&amp;#34; , , &amp;#34;heiti&amp;#34; , , sans-serif ; font-size: 14px ; text-align: left&quot;&gt;&lt;li style=&quot;box-sizing: border-box&quot;&gt;分配过货位 不处理&lt;/li&gt;&lt;li style=&quot;box-sizing: border-box ; margin-top: 0.25em&quot;&gt;出库单状态 小于待处理 或 大于等于延迟发货 不处理&lt;/li&gt;&lt;li style=&quot;box-sizing: border-box ; margin-top: 0.25em&quot;&gt;标记已下架的不处理&lt;/li&gt;&lt;li style=&quot;box-sizing: border-box ; margin-top: 0.25em&quot;&gt;非智能拣货不处理&lt;/li&gt;&lt;/ul&gt;" style="whiteSpace=wrap;html=1;rounded=0;" vertex="1" parent="3">
                    <mxGeometry x="10" y="2144" width="250" height="155" as="geometry"/>
                </mxCell>
                <mxCell id="182" value="&lt;ul style=&quot;box-sizing: border-box ; padding-left: 2em ; margin-top: 0px ; margin-bottom: 0px ; color: rgb(36 , 41 , 46) ; font-family: , &amp;#34;blinkmacsystemfont&amp;#34; , , &amp;#34;pingfang sc&amp;#34; , &amp;#34;helvetica&amp;#34; , &amp;#34;arial&amp;#34; , &amp;#34;hiragino sans gb&amp;#34; , &amp;#34;microsoft yahei&amp;#34; , &amp;#34;simsun&amp;#34; , , &amp;#34;heiti&amp;#34; , , sans-serif ; font-size: 14px ; text-align: left&quot;&gt;&lt;li style=&quot;box-sizing: border-box&quot;&gt;通过出库单查找出分拣波次的信息（&lt;mark style=&quot;box-sizing: border-box&quot;&gt;货区&lt;/mark&gt;和创建来源）&lt;ul style=&quot;box-sizing: border-box ; padding-left: 2em ; margin-top: 0px ; margin-bottom: 0px&quot;&gt;&lt;li style=&quot;box-sizing: border-box&quot;&gt;如果不为空&lt;ul style=&quot;box-sizing: border-box ; padding-left: 2em ; margin-top: 0px ; margin-bottom: 0px&quot;&gt;&lt;li style=&quot;box-sizing: border-box&quot;&gt;校验是否来自爆款且未拣货下架&lt;/li&gt;&lt;li style=&quot;box-sizing: border-box ; margin-top: 0.25em&quot;&gt;检查爆款是否配置了出库货位&lt;/li&gt;&lt;li style=&quot;box-sizing: border-box ; margin-top: 0.25em&quot;&gt;如果配置了将对应的货位设置到出库详细的货位中&lt;/li&gt;&lt;/ul&gt;&lt;/li&gt;&lt;/ul&gt;&lt;/li&gt;&lt;li style=&quot;box-sizing: border-box ; margin-top: 0.25em&quot;&gt;如果出库单不存在分拣波次&lt;ul style=&quot;box-sizing: border-box ; padding-left: 2em ; margin-top: 0px ; margin-bottom: 0px&quot;&gt;&lt;li style=&quot;box-sizing: border-box&quot;&gt;先查看单据处理界面的配置的货区进行赋值&lt;/li&gt;&lt;li style=&quot;box-sizing: border-box ; margin-top: 0.25em&quot;&gt;如果没有设置选择审核后自动选择的货区&lt;/li&gt;&lt;/ul&gt;&lt;/li&gt;&lt;li style=&quot;box-sizing: border-box ; margin-top: 0.25em&quot;&gt;如果出库单货区到最后不为0&lt;ul style=&quot;box-sizing: border-box ; padding-left: 2em ; margin-top: 0px ; margin-bottom: 0px&quot;&gt;&lt;li style=&quot;box-sizing: border-box&quot;&gt;查找到对应的货区&lt;/li&gt;&lt;li style=&quot;box-sizing: border-box ; margin-top: 0.25em&quot;&gt;查找到对应获取勾选的缺货处理方式是&lt;ul style=&quot;box-sizing: border-box ; padding-left: 2em ; margin-top: 0px ; margin-bottom: 0px&quot;&gt;&lt;li style=&quot;box-sizing: border-box&quot;&gt;库存不足优先从备货区出&lt;/li&gt;&lt;li style=&quot;box-sizing: border-box ; margin-top: 0.25em&quot;&gt;库存不足从盘亏暂存出&lt;/li&gt;&lt;/ul&gt;&lt;/li&gt;&lt;/ul&gt;&lt;/li&gt;&lt;/ul&gt;" style="shape=document;whiteSpace=wrap;html=1;boundedLbl=1;rounded=0;" vertex="1" parent="3">
                    <mxGeometry x="10" y="2345" width="260" height="695" as="geometry"/>
                </mxCell>
                <mxCell id="189" value="&lt;ul style=&quot;box-sizing: border-box ; padding-left: 2em ; margin-top: 0px ; margin-bottom: 0px ; color: rgb(36 , 41 , 46) ; font-family: , &amp;#34;blinkmacsystemfont&amp;#34; , , &amp;#34;pingfang sc&amp;#34; , &amp;#34;helvetica&amp;#34; , &amp;#34;arial&amp;#34; , &amp;#34;hiragino sans gb&amp;#34; , &amp;#34;microsoft yahei&amp;#34; , &amp;#34;simsun&amp;#34; , , &amp;#34;heiti&amp;#34; , , sans-serif ; font-size: 14px ; text-align: left&quot;&gt;&lt;li style=&quot;box-sizing: border-box ; margin-top: 0.25em&quot;&gt;对于下架过的只要 只要下了一部分, 就当下架了会将对应的出库单明细打上已下架标记&lt;/li&gt;&lt;li style=&quot;box-sizing: border-box ; margin-top: 0.25em&quot;&gt;创建对应的移位单并审核（审核时扣减的库存）&lt;/li&gt;&lt;li style=&quot;box-sizing: border-box ; margin-top: 0.25em&quot;&gt;保存出库单明细中的mask&lt;/li&gt;&lt;li style=&quot;box-sizing: border-box ; margin-top: 0.25em&quot;&gt;出库单增加已下架标记&lt;/li&gt;&lt;/ul&gt;" style="shape=document;whiteSpace=wrap;html=1;boundedLbl=1;rounded=0;" vertex="1" parent="3">
                    <mxGeometry x="35" y="3080" width="210" height="360" as="geometry"/>
                </mxCell>
                <mxCell id="193" value="如果之前有拣货员这里会生成新的拣货员日志并将之前的作废" style="shape=document;whiteSpace=wrap;html=1;boundedLbl=1;rounded=0;" vertex="1" parent="3">
                    <mxGeometry x="45" y="3490" width="190" height="150" as="geometry"/>
                </mxCell>
                <mxCell id="15" value="&lt;br&gt;&lt;br&gt;" style="swimlane;html=1;startSize=20;" vertex="1" parent="2">
                    <mxGeometry x="290" y="30" width="710" height="3920" as="geometry">
                        <mxRectangle x="210" y="30" width="40" height="1180" as="alternateBounds"/>
                    </mxGeometry>
                </mxCell>
                <mxCell id="16" style="edgeStyle=orthogonalEdgeStyle;rounded=0;orthogonalLoop=1;jettySize=auto;html=1;exitX=0.5;exitY=1;exitDx=0;exitDy=0;entryX=0.5;entryY=0;entryDx=0;entryDy=0;" edge="1" parent="15" source="17" target="19">
                    <mxGeometry relative="1" as="geometry"/>
                </mxCell>
                <mxCell id="17" value="开始" style="ellipse;whiteSpace=wrap;html=1;" vertex="1" parent="15">
                    <mxGeometry x="180" y="40" width="120" height="50" as="geometry"/>
                </mxCell>
                <mxCell id="19" value="扫描单号拉取出库单信息" style="rounded=0;whiteSpace=wrap;html=1;" vertex="1" parent="15">
                    <mxGeometry x="180" y="140" width="120" height="30" as="geometry"/>
                </mxCell>
                <mxCell id="20" style="edgeStyle=orthogonalEdgeStyle;rounded=0;orthogonalLoop=1;jettySize=auto;html=1;exitX=0.5;exitY=1;exitDx=0;exitDy=0;" edge="1" parent="15">
                    <mxGeometry relative="1" as="geometry">
                        <mxPoint x="240" y="480" as="sourcePoint"/>
                        <mxPoint x="240" y="480" as="targetPoint"/>
                    </mxGeometry>
                </mxCell>
                <mxCell id="25" style="edgeStyle=orthogonalEdgeStyle;rounded=0;orthogonalLoop=1;jettySize=auto;html=1;exitX=0.5;exitY=1;exitDx=0;exitDy=0;entryX=0.5;entryY=0;entryDx=0;entryDy=0;" edge="1" parent="15" target="30">
                    <mxGeometry relative="1" as="geometry">
                        <mxPoint x="240" y="250" as="sourcePoint"/>
                    </mxGeometry>
                </mxCell>
                <mxCell id="30" value="进行验货操作" style="rounded=0;whiteSpace=wrap;html=1;" vertex="1" parent="15">
                    <mxGeometry x="180" y="330" width="120" height="40" as="geometry"/>
                </mxCell>
                <mxCell id="126" value="扫描货品更新客户端界面" style="whiteSpace=wrap;html=1;rounded=0;" vertex="1" parent="15">
                    <mxGeometry x="180" y="200" width="120" height="60" as="geometry"/>
                </mxCell>
                <mxCell id="127" value="" style="edgeStyle=orthogonalEdgeStyle;rounded=0;orthogonalLoop=1;jettySize=auto;html=1;" edge="1" parent="15" source="19" target="126">
                    <mxGeometry relative="1" as="geometry"/>
                </mxCell>
                <mxCell id="132" value="获取到当前出库单的验货列表" style="whiteSpace=wrap;html=1;rounded=0;" vertex="1" parent="15">
                    <mxGeometry x="165" y="560" width="150" height="50" as="geometry"/>
                </mxCell>
                <mxCell id="134" value="进行验货操作" style="whiteSpace=wrap;html=1;rounded=0;" vertex="1" parent="15">
                    <mxGeometry x="180" y="650" width="120" height="60" as="geometry"/>
                </mxCell>
                <mxCell id="135" value="" style="edgeStyle=orthogonalEdgeStyle;rounded=0;orthogonalLoop=1;jettySize=auto;html=1;" edge="1" parent="15" source="132" target="134">
                    <mxGeometry relative="1" as="geometry"/>
                </mxCell>
                <mxCell id="138" value="&lt;span style=&quot;color: rgb(36 , 41 , 46) ; font-family: , &amp;#34;blinkmacsystemfont&amp;#34; , , &amp;#34;pingfang sc&amp;#34; , &amp;#34;helvetica&amp;#34; , &amp;#34;arial&amp;#34; , &amp;#34;hiragino sans gb&amp;#34; , &amp;#34;microsoft yahei&amp;#34; , &amp;#34;simsun&amp;#34; , , &amp;#34;heiti&amp;#34; , , sans-serif ; font-size: 14px ; text-align: left&quot;&gt;勾选了验货后发货（stockout_examine_auto_consign）会校验物流单号&lt;/span&gt;" style="whiteSpace=wrap;html=1;rounded=0;" vertex="1" parent="15">
                    <mxGeometry x="115" y="880" width="250" height="60" as="geometry"/>
                </mxCell>
                <mxCell id="140" value="&lt;span style=&quot;color: rgb(36 , 41 , 46) ; font-family: , &amp;#34;blinkmacsystemfont&amp;#34; , , &amp;#34;pingfang sc&amp;#34; , &amp;#34;helvetica&amp;#34; , &amp;#34;arial&amp;#34; , &amp;#34;hiragino sans gb&amp;#34; , &amp;#34;microsoft yahei&amp;#34; , &amp;#34;simsun&amp;#34; , , &amp;#34;heiti&amp;#34; , , sans-serif ; font-size: 14px ; text-align: left&quot;&gt;出库单去获取到订单判断订单的状态（已确认），和为空判断&lt;/span&gt;" style="whiteSpace=wrap;html=1;rounded=0;" vertex="1" parent="15">
                    <mxGeometry x="125" y="969" width="230" height="60" as="geometry"/>
                </mxCell>
                <mxCell id="141" value="" style="edgeStyle=orthogonalEdgeStyle;rounded=0;orthogonalLoop=1;jettySize=auto;html=1;" edge="1" parent="15" source="138" target="140">
                    <mxGeometry relative="1" as="geometry"/>
                </mxCell>
                <mxCell id="142" value="&lt;span style=&quot;color: rgb(36 , 41 , 46) ; font-family: , &amp;#34;blinkmacsystemfont&amp;#34; , , &amp;#34;pingfang sc&amp;#34; , &amp;#34;helvetica&amp;#34; , &amp;#34;arial&amp;#34; , &amp;#34;hiragino sans gb&amp;#34; , &amp;#34;microsoft yahei&amp;#34; , &amp;#34;simsun&amp;#34; , , &amp;#34;heiti&amp;#34; , , sans-serif ; font-size: 14px ; text-align: left&quot;&gt;检查对应的出库单权限&lt;/span&gt;" style="whiteSpace=wrap;html=1;rounded=0;" vertex="1" parent="15">
                    <mxGeometry x="130" y="1060" width="220" height="60" as="geometry"/>
                </mxCell>
                <mxCell id="143" value="" style="edgeStyle=orthogonalEdgeStyle;rounded=0;orthogonalLoop=1;jettySize=auto;html=1;" edge="1" parent="15" source="140" target="142">
                    <mxGeometry relative="1" as="geometry"/>
                </mxCell>
                <mxCell id="144" value="&lt;span style=&quot;color: rgb(36 , 41 , 46) ; font-size: 14px&quot;&gt;将验货列表goodsList进行合并处理，将相同spec_id的类进行数量相加并合并成一条&lt;/span&gt;" style="whiteSpace=wrap;html=1;rounded=0;" vertex="1" parent="15">
                    <mxGeometry x="110" y="1150" width="260" height="70" as="geometry"/>
                </mxCell>
                <mxCell id="145" value="" style="edgeStyle=orthogonalEdgeStyle;rounded=0;orthogonalLoop=1;jettySize=auto;html=1;" edge="1" parent="15" source="142" target="144">
                    <mxGeometry relative="1" as="geometry"/>
                </mxCell>
                <mxCell id="146" value="&lt;span style=&quot;color: rgb(36 , 41 , 46) ; font-family: , &amp;#34;blinkmacsystemfont&amp;#34; , , &amp;#34;pingfang sc&amp;#34; , &amp;#34;helvetica&amp;#34; , &amp;#34;arial&amp;#34; , &amp;#34;hiragino sans gb&amp;#34; , &amp;#34;microsoft yahei&amp;#34; , &amp;#34;simsun&amp;#34; , , &amp;#34;heiti&amp;#34; , , sans-serif ; font-size: 14px ; text-align: left&quot;&gt;校验出库单&lt;/span&gt;" style="whiteSpace=wrap;html=1;rounded=0;" vertex="1" parent="15">
                    <mxGeometry x="180" y="1240" width="120" height="60" as="geometry"/>
                </mxCell>
                <mxCell id="147" value="" style="edgeStyle=orthogonalEdgeStyle;rounded=0;orthogonalLoop=1;jettySize=auto;html=1;" edge="1" parent="15" source="144" target="146">
                    <mxGeometry relative="1" as="geometry"/>
                </mxCell>
                <mxCell id="150" value="&lt;span style=&quot;color: rgb(36 , 41 , 46) ; font-family: , &amp;#34;blinkmacsystemfont&amp;#34; , , &amp;#34;pingfang sc&amp;#34; , &amp;#34;helvetica&amp;#34; , &amp;#34;arial&amp;#34; , &amp;#34;hiragino sans gb&amp;#34; , &amp;#34;microsoft yahei&amp;#34; , &amp;#34;simsun&amp;#34; , , &amp;#34;heiti&amp;#34; , , sans-serif ; font-size: 14px ; text-align: left&quot;&gt;通过出库单明细（orderDetailList）获取到对应的sn类型（spec_id,sn_type）&lt;/span&gt;" style="whiteSpace=wrap;html=1;rounded=0;" vertex="1" parent="15">
                    <mxGeometry x="125" y="1360" width="230" height="80" as="geometry"/>
                </mxCell>
                <mxCell id="151" value="" style="edgeStyle=orthogonalEdgeStyle;rounded=0;orthogonalLoop=1;jettySize=auto;html=1;" edge="1" parent="15" source="146" target="150">
                    <mxGeometry relative="1" as="geometry"/>
                </mxCell>
                <mxCell id="152" value="&lt;span style=&quot;color: rgb(36 , 41 , 46) ; font-family: , &amp;#34;blinkmacsystemfont&amp;#34; , , &amp;#34;pingfang sc&amp;#34; , &amp;#34;helvetica&amp;#34; , &amp;#34;arial&amp;#34; , &amp;#34;hiragino sans gb&amp;#34; , &amp;#34;microsoft yahei&amp;#34; , &amp;#34;simsun&amp;#34; , , &amp;#34;heiti&amp;#34; , , sans-serif ; font-size: 14px ; text-align: left&quot;&gt;将货品明细通过spec_id，defect进行分组&lt;/span&gt;" style="whiteSpace=wrap;html=1;rounded=0;" vertex="1" parent="15">
                    <mxGeometry x="135" y="1480" width="210" height="70" as="geometry"/>
                </mxCell>
                <mxCell id="153" value="" style="edgeStyle=orthogonalEdgeStyle;rounded=0;orthogonalLoop=1;jettySize=auto;html=1;" edge="1" parent="15" source="150" target="152">
                    <mxGeometry relative="1" as="geometry"/>
                </mxCell>
                <mxCell id="154" value="&lt;span style=&quot;color: rgb(36 , 41 , 46) ; font-family: , &amp;#34;blinkmacsystemfont&amp;#34; , , &amp;#34;pingfang sc&amp;#34; , &amp;#34;helvetica&amp;#34; , &amp;#34;arial&amp;#34; , &amp;#34;hiragino sans gb&amp;#34; , &amp;#34;microsoft yahei&amp;#34; , &amp;#34;simsun&amp;#34; , , &amp;#34;heiti&amp;#34; , , sans-serif ; font-size: 14px ; text-align: left&quot;&gt;遍历验货列表&lt;/span&gt;" style="whiteSpace=wrap;html=1;rounded=0;" vertex="1" parent="15">
                    <mxGeometry x="180" y="1580" width="120" height="60" as="geometry"/>
                </mxCell>
                <mxCell id="155" value="" style="edgeStyle=orthogonalEdgeStyle;rounded=0;orthogonalLoop=1;jettySize=auto;html=1;" edge="1" parent="15" source="152" target="154">
                    <mxGeometry relative="1" as="geometry"/>
                </mxCell>
                <mxCell id="156" value="检查货品数量" style="whiteSpace=wrap;html=1;rounded=0;" vertex="1" parent="15">
                    <mxGeometry x="180" y="1670" width="120" height="60" as="geometry"/>
                </mxCell>
                <mxCell id="157" value="" style="edgeStyle=orthogonalEdgeStyle;rounded=0;orthogonalLoop=1;jettySize=auto;html=1;" edge="1" parent="15" source="154" target="156">
                    <mxGeometry relative="1" as="geometry"/>
                </mxCell>
                <mxCell id="158" value="校验SN" style="whiteSpace=wrap;html=1;rounded=0;" vertex="1" parent="15">
                    <mxGeometry x="180" y="1770" width="120" height="60" as="geometry"/>
                </mxCell>
                <mxCell id="159" value="" style="edgeStyle=orthogonalEdgeStyle;rounded=0;orthogonalLoop=1;jettySize=auto;html=1;" edge="1" parent="15" source="156" target="158">
                    <mxGeometry relative="1" as="geometry"/>
                </mxCell>
                <mxCell id="162" value="更改对应的sn状态为已占用" style="whiteSpace=wrap;html=1;rounded=0;" vertex="1" parent="15">
                    <mxGeometry x="180" y="1870" width="120" height="60" as="geometry"/>
                </mxCell>
                <mxCell id="163" value="" style="edgeStyle=orthogonalEdgeStyle;rounded=0;orthogonalLoop=1;jettySize=auto;html=1;" edge="1" parent="15" source="158" target="162">
                    <mxGeometry relative="1" as="geometry"/>
                </mxCell>
                <mxCell id="164" value="设置出库单发货状态|已验货" style="whiteSpace=wrap;html=1;rounded=0;" vertex="1" parent="15">
                    <mxGeometry x="180" y="1960" width="120" height="60" as="geometry"/>
                </mxCell>
                <mxCell id="165" value="" style="edgeStyle=orthogonalEdgeStyle;rounded=0;orthogonalLoop=1;jettySize=auto;html=1;" edge="1" parent="15" source="162" target="164">
                    <mxGeometry relative="1" as="geometry"/>
                </mxCell>
                <mxCell id="166" value="验货成功则抹除拣货缺货标记" style="whiteSpace=wrap;html=1;rounded=0;" vertex="1" parent="15">
                    <mxGeometry x="180" y="2050" width="120" height="60" as="geometry"/>
                </mxCell>
                <mxCell id="167" value="" style="edgeStyle=orthogonalEdgeStyle;rounded=0;orthogonalLoop=1;jettySize=auto;html=1;" edge="1" parent="15" source="164" target="166">
                    <mxGeometry relative="1" as="geometry"/>
                </mxCell>
                <mxCell id="168" value="&lt;div&gt;插入日志&lt;/div&gt;&lt;div&gt;计算综合积分&lt;/div&gt;" style="whiteSpace=wrap;html=1;rounded=0;" vertex="1" parent="15">
                    <mxGeometry x="180" y="2138" width="120" height="60" as="geometry"/>
                </mxCell>
                <mxCell id="169" value="" style="edgeStyle=orthogonalEdgeStyle;rounded=0;orthogonalLoop=1;jettySize=auto;html=1;" edge="1" parent="15" source="166" target="168">
                    <mxGeometry relative="1" as="geometry"/>
                </mxCell>
                <mxCell id="130" value="遍历传入的多个出库单id" style="whiteSpace=wrap;html=1;rounded=0;" vertex="1" parent="15">
                    <mxGeometry x="180" y="430" width="120" height="60" as="geometry"/>
                </mxCell>
                <mxCell id="131" value="" style="edgeStyle=orthogonalEdgeStyle;rounded=0;orthogonalLoop=1;jettySize=auto;html=1;" edge="1" parent="15" source="30" target="130">
                    <mxGeometry relative="1" as="geometry"/>
                </mxCell>
                <mxCell id="133" value="" style="edgeStyle=orthogonalEdgeStyle;rounded=0;orthogonalLoop=1;jettySize=auto;html=1;" edge="1" parent="15" source="130" target="132">
                    <mxGeometry relative="1" as="geometry"/>
                </mxCell>
                <mxCell id="136" value="通过传入的出库单id查找出出库单" style="whiteSpace=wrap;html=1;rounded=0;" vertex="1" parent="15">
                    <mxGeometry x="180" y="770" width="120" height="60" as="geometry"/>
                </mxCell>
                <mxCell id="137" value="" style="edgeStyle=orthogonalEdgeStyle;rounded=0;orthogonalLoop=1;jettySize=auto;html=1;" edge="1" parent="15" source="134" target="136">
                    <mxGeometry relative="1" as="geometry"/>
                </mxCell>
                <mxCell id="139" value="" style="edgeStyle=orthogonalEdgeStyle;rounded=0;orthogonalLoop=1;jettySize=auto;html=1;" edge="1" parent="15" source="136" target="138">
                    <mxGeometry relative="1" as="geometry"/>
                </mxCell>
                <mxCell id="172" value="如果验货员和之前的验货员不一样使用新的验货员并把之前的日志作废，插入新的日志并计算积分" style="whiteSpace=wrap;html=1;rounded=0;" vertex="1" parent="15">
                    <mxGeometry x="180" y="2230" width="120" height="98" as="geometry"/>
                </mxCell>
                <mxCell id="173" value="" style="edgeStyle=orthogonalEdgeStyle;rounded=0;orthogonalLoop=1;jettySize=auto;html=1;" edge="1" parent="15" source="168" target="172">
                    <mxGeometry relative="1" as="geometry"/>
                </mxCell>
                <mxCell id="174" value="对于验货完成但是没有完成发货的移到发货暂存" style="whiteSpace=wrap;html=1;rounded=0;" vertex="1" parent="15">
                    <mxGeometry x="165" y="2370" width="150" height="60" as="geometry"/>
                </mxCell>
                <mxCell id="175" value="" style="edgeStyle=orthogonalEdgeStyle;rounded=0;orthogonalLoop=1;jettySize=auto;html=1;" edge="1" parent="15" source="172" target="174">
                    <mxGeometry relative="1" as="geometry"/>
                </mxCell>
                <mxCell id="176" value="&lt;div style=&quot;text-align: left&quot;&gt;&lt;span style=&quot;font-size: 14px&quot;&gt;&lt;font color=&quot;#24292e&quot;&gt;校验是否可以移位&lt;/font&gt;&lt;/span&gt;&lt;/div&gt;" style="whiteSpace=wrap;html=1;rounded=0;" vertex="1" parent="15">
                    <mxGeometry x="127.5" y="2470" width="225" height="50" as="geometry"/>
                </mxCell>
                <mxCell id="177" value="" style="edgeStyle=orthogonalEdgeStyle;rounded=0;orthogonalLoop=1;jettySize=auto;html=1;" edge="1" parent="15" source="174" target="176">
                    <mxGeometry relative="1" as="geometry"/>
                </mxCell>
                <mxCell id="180" value="计算出库的优先货区及类型" style="whiteSpace=wrap;html=1;rounded=0;" vertex="1" parent="15">
                    <mxGeometry x="180" y="2662.5" width="120" height="60" as="geometry"/>
                </mxCell>
                <mxCell id="181" value="" style="edgeStyle=orthogonalEdgeStyle;rounded=0;orthogonalLoop=1;jettySize=auto;html=1;" edge="1" parent="15" source="176" target="180">
                    <mxGeometry relative="1" as="geometry"/>
                </mxCell>
                <mxCell id="191" value="&lt;span style=&quot;color: rgb(36 , 41 , 46) ; font-family: , &amp;#34;blinkmacsystemfont&amp;#34; , , &amp;#34;pingfang sc&amp;#34; , &amp;#34;helvetica&amp;#34; , &amp;#34;arial&amp;#34; , &amp;#34;hiragino sans gb&amp;#34; , &amp;#34;microsoft yahei&amp;#34; , &amp;#34;simsun&amp;#34; , , &amp;#34;heiti&amp;#34; , , sans-serif ; font-size: 14px ; text-align: left&quot;&gt;如果勾选了验货时同时登记拣货员&lt;br&gt;&lt;/span&gt;&lt;span style=&quot;color: rgb(36 , 41 , 46) ; font-family: , &amp;#34;blinkmacsystemfont&amp;#34; , , &amp;#34;pingfang sc&amp;#34; , &amp;#34;helvetica&amp;#34; , &amp;#34;arial&amp;#34; , &amp;#34;hiragino sans gb&amp;#34; , &amp;#34;microsoft yahei&amp;#34; , &amp;#34;simsun&amp;#34; , , &amp;#34;heiti&amp;#34; , , sans-serif ; font-size: 14px ; text-align: left&quot;&gt;进行登记拣货员操作&lt;/span&gt;&lt;span style=&quot;color: rgb(36 , 41 , 46) ; font-family: , &amp;#34;blinkmacsystemfont&amp;#34; , , &amp;#34;pingfang sc&amp;#34; , &amp;#34;helvetica&amp;#34; , &amp;#34;arial&amp;#34; , &amp;#34;hiragino sans gb&amp;#34; , &amp;#34;microsoft yahei&amp;#34; , &amp;#34;simsun&amp;#34; , , &amp;#34;heiti&amp;#34; , , sans-serif ; font-size: 14px ; text-align: left&quot;&gt;&lt;br&gt;&lt;/span&gt;" style="whiteSpace=wrap;html=1;rounded=0;" vertex="1" parent="15">
                    <mxGeometry x="160" y="3060" width="160" height="87.5" as="geometry"/>
                </mxCell>
                <mxCell id="195" value="如果勾选了登记包装，会对包装进行登记" style="whiteSpace=wrap;html=1;rounded=0;" vertex="1" parent="15">
                    <mxGeometry x="180" y="3180" width="120" height="60" as="geometry"/>
                </mxCell>
                <mxCell id="196" value="" style="edgeStyle=orthogonalEdgeStyle;rounded=0;orthogonalLoop=1;jettySize=auto;html=1;" edge="1" parent="15" source="191" target="195">
                    <mxGeometry relative="1" as="geometry"/>
                </mxCell>
                <mxCell id="199" value="&lt;ul style=&quot;box-sizing: border-box ; padding-left: 2em ; margin-top: 0px ; margin-bottom: 0px ; color: rgb(36 , 41 , 46) ; font-family: , &amp;#34;blinkmacsystemfont&amp;#34; , , &amp;#34;pingfang sc&amp;#34; , &amp;#34;helvetica&amp;#34; , &amp;#34;arial&amp;#34; , &amp;#34;hiragino sans gb&amp;#34; , &amp;#34;microsoft yahei&amp;#34; , &amp;#34;simsun&amp;#34; , , &amp;#34;heiti&amp;#34; , , sans-serif ; font-size: 14px ; text-align: left&quot;&gt;&lt;li style=&quot;box-sizing: border-box ; margin-top: 0.25em&quot;&gt;如果勾选了验货后立即发货直接走发货方法&lt;/li&gt;&lt;li style=&quot;box-sizing: border-box ; margin-top: 0.25em&quot;&gt;如果勾选了验货后延迟发货走延迟发货方法&lt;/li&gt;&lt;/ul&gt;" style="whiteSpace=wrap;html=1;rounded=0;" vertex="1" parent="15">
                    <mxGeometry x="75" y="3450" width="330" height="80" as="geometry"/>
                </mxCell>
                <mxCell id="99" value="关键表信息" style="swimlane;html=1;startSize=20;" vertex="1" parent="2">
                    <mxGeometry x="1000" y="30" width="220" height="3920" as="geometry"/>
                </mxCell>
                <mxCell id="204" value="&lt;div&gt;stockout_logistics_order&lt;/div&gt;&lt;div&gt;stockout_order&lt;/div&gt;&lt;div&gt;sales_trade&lt;/div&gt;" style="rounded=0;whiteSpace=wrap;html=1;" vertex="1" parent="99">
                    <mxGeometry x="63.75" y="80" width="145" height="80" as="geometry"/>
                </mxCell>
                <mxCell id="208" value="&lt;div&gt;&lt;font color=&quot;#6a8759&quot;&gt;stock_goods_sn&lt;/font&gt;&lt;/div&gt;&lt;div&gt;&lt;font color=&quot;#6a8759&quot;&gt;goods_barcode&lt;/font&gt;&lt;/div&gt;&lt;div&gt;&lt;font color=&quot;#6a8759&quot;&gt;goods_spec&amp;nbsp;&amp;nbsp;&lt;/font&gt;&lt;/div&gt;&lt;div&gt;&lt;font color=&quot;#6a8759&quot;&gt;stockout_order_detail&lt;/font&gt;&lt;/div&gt;" style="whiteSpace=wrap;html=1;rounded=0;" vertex="1" parent="99">
                    <mxGeometry x="76.25" y="190" width="132.5" height="80" as="geometry"/>
                </mxCell>
                <mxCell id="216" value="&lt;div&gt;stock_goods_sn&lt;/div&gt;&lt;div&gt;stockout_detail_sn&lt;/div&gt;&lt;div&gt;stockout_order&lt;/div&gt;&lt;div&gt;stockout_order_detail&lt;/div&gt;&lt;div&gt;&lt;br&gt;&lt;/div&gt;" style="whiteSpace=wrap;html=1;rounded=0;" vertex="1" parent="99">
                    <mxGeometry x="59.75" y="295" width="149" height="110" as="geometry"/>
                </mxCell>
                <mxCell id="112" value="方法" style="swimlane;html=1;startSize=20;" vertex="1" parent="2">
                    <mxGeometry x="1220" y="30" width="520" height="3920" as="geometry"/>
                </mxCell>
                <mxCell id="206" value="&lt;span style=&quot;color: rgb(36 , 41 , 46) ; font-family: , &amp;#34;blinkmacsystemfont&amp;#34; , , &amp;#34;pingfang sc&amp;#34; , &amp;#34;helvetica&amp;#34; , &amp;#34;arial&amp;#34; , &amp;#34;hiragino sans gb&amp;#34; , &amp;#34;microsoft yahei&amp;#34; , &amp;#34;simsun&amp;#34; , , &amp;#34;heiti&amp;#34; , , sans-serif ; font-size: 14px&quot;&gt;wms.stockout.Sales.getTradeAndDetailForExamine&lt;span class=&quot;Apple-converted-space&quot;&gt;&amp;nbsp;&lt;/span&gt;&lt;/span&gt;" style="whiteSpace=wrap;html=1;rounded=0;" vertex="1" parent="112">
                    <mxGeometry x="87.5" y="127.5" width="392.5" height="55" as="geometry"/>
                </mxCell>
                <mxCell id="210" value="wms.stockout.Base.scan&lt;br&gt;wms.stockout.Base.scanGoods" style="whiteSpace=wrap;html=1;rounded=0;" vertex="1" parent="112">
                    <mxGeometry x="70" y="205" width="397.5" height="50" as="geometry"/>
                </mxCell>
                <mxCell id="212" value="&lt;span style=&quot;color: rgb(36 , 41 , 46) ; font-family: , &amp;#34;blinkmacsystemfont&amp;#34; , , &amp;#34;pingfang sc&amp;#34; , &amp;#34;helvetica&amp;#34; , &amp;#34;arial&amp;#34; , &amp;#34;hiragino sans gb&amp;#34; , &amp;#34;microsoft yahei&amp;#34; , &amp;#34;simsun&amp;#34; , , &amp;#34;heiti&amp;#34; , , sans-serif ; font-size: 14px&quot;&gt;wms.stockout.Sales.batchExamine&lt;/span&gt;" style="whiteSpace=wrap;html=1;rounded=0;" vertex="1" parent="112">
                    <mxGeometry x="170" y="320" width="310" height="60" as="geometry"/>
                </mxCell>
                <mxCell id="214" value="wms.stockout.sales.SalesService#examineImpl" style="whiteSpace=wrap;html=1;rounded=0;" vertex="1" parent="112">
                    <mxGeometry x="130" y="650" width="290" height="60" as="geometry"/>
                </mxCell>
                <mxCell id="121" style="edgeStyle=orthogonalEdgeStyle;rounded=0;orthogonalLoop=1;jettySize=auto;html=1;exitX=0;exitY=0.5;exitDx=0;exitDy=0;entryX=1;entryY=0.5;entryDx=0;entryDy=0;" edge="1" parent="2" source="126" target="5">
                    <mxGeometry relative="1" as="geometry">
                        <mxPoint x="250" y="260" as="targetPoint"/>
                        <mxPoint x="370" y="260" as="sourcePoint"/>
                    </mxGeometry>
                </mxCell>
                <mxCell id="125" value="" style="edgeStyle=orthogonalEdgeStyle;rounded=0;orthogonalLoop=1;jettySize=auto;html=1;" edge="1" parent="2" source="19" target="124">
                    <mxGeometry relative="1" as="geometry"/>
                </mxCell>
                <mxCell id="129" value="" style="edgeStyle=orthogonalEdgeStyle;rounded=0;orthogonalLoop=1;jettySize=auto;html=1;" edge="1" parent="2" source="30" target="128">
                    <mxGeometry relative="1" as="geometry"/>
                </mxCell>
                <mxCell id="149" value="" style="edgeStyle=orthogonalEdgeStyle;rounded=0;orthogonalLoop=1;jettySize=auto;html=1;" edge="1" parent="2" source="146" target="148">
                    <mxGeometry relative="1" as="geometry"/>
                </mxCell>
                <mxCell id="170" style="edgeStyle=orthogonalEdgeStyle;rounded=0;orthogonalLoop=1;jettySize=auto;html=1;entryX=1.002;entryY=0.432;entryDx=0;entryDy=0;entryPerimeter=0;" edge="1" parent="2" source="158" target="160">
                    <mxGeometry relative="1" as="geometry"/>
                </mxCell>
                <mxCell id="179" value="" style="edgeStyle=orthogonalEdgeStyle;rounded=0;orthogonalLoop=1;jettySize=auto;html=1;" edge="1" parent="2" source="176" target="178">
                    <mxGeometry relative="1" as="geometry">
                        <Array as="points">
                            <mxPoint x="370" y="2525"/>
                            <mxPoint x="370" y="2252"/>
                        </Array>
                    </mxGeometry>
                </mxCell>
                <mxCell id="183" value="" style="edgeStyle=orthogonalEdgeStyle;rounded=0;orthogonalLoop=1;jettySize=auto;html=1;" edge="1" parent="2" source="180" target="182">
                    <mxGeometry relative="1" as="geometry"/>
                </mxCell>
                <mxCell id="194" value="" style="edgeStyle=orthogonalEdgeStyle;rounded=0;orthogonalLoop=1;jettySize=auto;html=1;" edge="1" parent="2" source="191" target="193">
                    <mxGeometry relative="1" as="geometry">
                        <Array as="points">
                            <mxPoint x="330" y="3134"/>
                            <mxPoint x="330" y="3460"/>
                            <mxPoint x="260" y="3460"/>
                            <mxPoint x="260" y="3595"/>
                        </Array>
                    </mxGeometry>
                </mxCell>
                <mxCell id="205" value="" style="edgeStyle=orthogonalEdgeStyle;rounded=0;orthogonalLoop=1;jettySize=auto;html=1;" edge="1" parent="2" source="19" target="204">
                    <mxGeometry relative="1" as="geometry"/>
                </mxCell>
                <mxCell id="207" value="" style="edgeStyle=orthogonalEdgeStyle;rounded=0;orthogonalLoop=1;jettySize=auto;html=1;" edge="1" parent="2" source="204" target="206">
                    <mxGeometry relative="1" as="geometry"/>
                </mxCell>
                <mxCell id="209" value="" style="edgeStyle=orthogonalEdgeStyle;rounded=0;orthogonalLoop=1;jettySize=auto;html=1;" edge="1" parent="2" source="126" target="208">
                    <mxGeometry relative="1" as="geometry"/>
                </mxCell>
                <mxCell id="211" value="" style="edgeStyle=orthogonalEdgeStyle;rounded=0;orthogonalLoop=1;jettySize=auto;html=1;" edge="1" parent="2" source="208" target="210">
                    <mxGeometry relative="1" as="geometry"/>
                </mxCell>
                <mxCell id="215" value="" style="edgeStyle=orthogonalEdgeStyle;rounded=0;orthogonalLoop=1;jettySize=auto;html=1;" edge="1" parent="2" source="134" target="214">
                    <mxGeometry relative="1" as="geometry"/>
                </mxCell>
                <mxCell id="217" value="" style="edgeStyle=orthogonalEdgeStyle;rounded=0;orthogonalLoop=1;jettySize=auto;html=1;" edge="1" parent="2" source="30" target="216">
                    <mxGeometry relative="1" as="geometry"/>
                </mxCell>
                <mxCell id="218" style="edgeStyle=orthogonalEdgeStyle;rounded=0;orthogonalLoop=1;jettySize=auto;html=1;entryX=0;entryY=0.5;entryDx=0;entryDy=0;" edge="1" parent="2" source="216" target="212">
                    <mxGeometry relative="1" as="geometry"/>
                </mxCell>
                <mxCell id="188" value="" style="edgeStyle=orthogonalEdgeStyle;rounded=0;orthogonalLoop=1;jettySize=auto;html=1;" edge="1" parent="1" source="185" target="187">
                    <mxGeometry relative="1" as="geometry"/>
                </mxCell>
                <mxCell id="185" value="&lt;span style=&quot;color: rgb(36 , 41 , 46) ; font-family: , &amp;#34;blinkmacsystemfont&amp;#34; , , &amp;#34;pingfang sc&amp;#34; , &amp;#34;helvetica&amp;#34; , &amp;#34;arial&amp;#34; , &amp;#34;hiragino sans gb&amp;#34; , &amp;#34;microsoft yahei&amp;#34; , &amp;#34;simsun&amp;#34; , , &amp;#34;heiti&amp;#34; , , sans-serif ; font-size: 14px ; text-align: left&quot;&gt;尝试出库下架, 将库存移到暂存&lt;/span&gt;" style="whiteSpace=wrap;html=1;rounded=0;" vertex="1" parent="1">
                    <mxGeometry x="590" y="1672.5" width="120" height="60" as="geometry"/>
                </mxCell>
                <mxCell id="186" value="" style="edgeStyle=orthogonalEdgeStyle;rounded=0;orthogonalLoop=1;jettySize=auto;html=1;" edge="1" parent="1" source="180" target="185">
                    <mxGeometry relative="1" as="geometry"/>
                </mxCell>
                <mxCell id="190" value="" style="edgeStyle=orthogonalEdgeStyle;rounded=0;orthogonalLoop=1;jettySize=auto;html=1;" edge="1" parent="1" source="187" target="189">
                    <mxGeometry relative="1" as="geometry"/>
                </mxCell>
                <mxCell id="192" value="" style="edgeStyle=orthogonalEdgeStyle;rounded=0;orthogonalLoop=1;jettySize=auto;html=1;" edge="1" parent="1" source="187" target="191">
                    <mxGeometry relative="1" as="geometry"/>
                </mxCell>
                <mxCell id="187" value="执行下架操作" style="whiteSpace=wrap;html=1;rounded=0;" vertex="1" parent="1">
                    <mxGeometry x="590" y="1812.5" width="120" height="60" as="geometry"/>
                </mxCell>
                <mxCell id="200" value="" style="edgeStyle=orthogonalEdgeStyle;rounded=0;orthogonalLoop=1;jettySize=auto;html=1;" edge="1" parent="1" source="197" target="199">
                    <mxGeometry relative="1" as="geometry"/>
                </mxCell>
                <mxCell id="197" value="重新计算重量如果重量和订单上的重量不一致重新计算邮资" style="whiteSpace=wrap;html=1;rounded=0;" vertex="1" parent="1">
                    <mxGeometry x="590" y="2190" width="120" height="60" as="geometry"/>
                </mxCell>
                <mxCell id="198" value="" style="edgeStyle=orthogonalEdgeStyle;rounded=0;orthogonalLoop=1;jettySize=auto;html=1;" edge="1" parent="1" source="195" target="197">
                    <mxGeometry relative="1" as="geometry"/>
                </mxCell>
                <mxCell id="203" style="edgeStyle=orthogonalEdgeStyle;rounded=0;orthogonalLoop=1;jettySize=auto;html=1;entryX=1;entryY=0.75;entryDx=0;entryDy=0;" edge="1" parent="1" source="201" target="130">
                    <mxGeometry relative="1" as="geometry">
                        <Array as="points">
                            <mxPoint x="950" y="2520"/>
                            <mxPoint x="950" y="-655"/>
                        </Array>
                    </mxGeometry>
                </mxCell>
                <mxCell id="201" value="根据物流同步设置验货时同步则进行物流同步" style="whiteSpace=wrap;html=1;rounded=0;" vertex="1" parent="1">
                    <mxGeometry x="590" y="2490" width="120" height="60" as="geometry"/>
                </mxCell>
                <mxCell id="202" value="" style="edgeStyle=orthogonalEdgeStyle;rounded=0;orthogonalLoop=1;jettySize=auto;html=1;" edge="1" parent="1" source="199" target="201">
                    <mxGeometry relative="1" as="geometry"/>
                </mxCell>
            </root>
        </mxGraphModel>
    </diagram>
</mxfile>